<mxfile host="Electron" agent="Mozilla/5.0 (Windows NT 10.0; Win64; x64) AppleWebKit/537.36 (KHTML, like Gecko) draw.io/24.7.8 Chrome/128.0.6613.36 Electron/32.0.1 Safari/537.36" version="24.7.8">
  <diagram name="Page-1" id="03018318-947c-dd8e-b7a3-06fadd420f32">
    <mxGraphModel dx="956" dy="460" grid="1" gridSize="10" guides="1" tooltips="1" connect="1" arrows="1" fold="1" page="1" pageScale="1" pageWidth="1100" pageHeight="850" background="#ffffff" math="0" shadow="0">
      <root>
        <mxCell id="0" />
        <mxCell id="1" parent="0" />
        <mxCell id="E7b6t17wuE4V5hdHy_3p-1" value="" style="rounded=0;whiteSpace=wrap;html=1;" parent="1" vertex="1">
          <mxGeometry x="50" y="65" width="590" height="360" as="geometry" />
        </mxCell>
        <mxCell id="E7b6t17wuE4V5hdHy_3p-2" value="" style="rounded=0;whiteSpace=wrap;html=1;" parent="1" vertex="1">
          <mxGeometry x="50" y="65" width="590" height="80" as="geometry" />
        </mxCell>
        <mxCell id="E7b6t17wuE4V5hdHy_3p-3" value="Pezza Logo" style="ellipse;whiteSpace=wrap;html=1;aspect=fixed;" parent="1" vertex="1">
          <mxGeometry x="70" y="65" width="80" height="80" as="geometry" />
        </mxCell>
        <mxCell id="E7b6t17wuE4V5hdHy_3p-6" value="Pizza" style="rounded=0;whiteSpace=wrap;html=1;" parent="1" vertex="1">
          <mxGeometry x="190" y="91.25" width="120" height="26.25" as="geometry" />
        </mxCell>
        <mxCell id="E7b6t17wuE4V5hdHy_3p-7" value="Orders" style="rounded=0;whiteSpace=wrap;html=1;" parent="1" vertex="1">
          <mxGeometry x="500" y="92.5" width="120" height="25" as="geometry" />
        </mxCell>
        <mxCell id="E7b6t17wuE4V5hdHy_3p-9" value="&lt;span style=&quot;font-size: 24px;&quot;&gt;Setting/Pizza Page&lt;/span&gt;" style="text;html=1;align=center;verticalAlign=middle;whiteSpace=wrap;rounded=0;" parent="1" vertex="1">
          <mxGeometry x="240" y="15" width="210" height="30" as="geometry" />
        </mxCell>
        <mxCell id="E7b6t17wuE4V5hdHy_3p-10" value="" style="rounded=0;whiteSpace=wrap;html=1;" parent="1" vertex="1">
          <mxGeometry x="700" y="68.75" width="590" height="365" as="geometry" />
        </mxCell>
        <mxCell id="E7b6t17wuE4V5hdHy_3p-11" value="" style="rounded=0;whiteSpace=wrap;html=1;" parent="1" vertex="1">
          <mxGeometry x="700" y="68.75" width="590" height="80" as="geometry" />
        </mxCell>
        <mxCell id="E7b6t17wuE4V5hdHy_3p-13" value="&lt;font style=&quot;font-size: 21px;&quot;&gt;Pezza&lt;/font&gt;" style="text;html=1;align=center;verticalAlign=middle;whiteSpace=wrap;rounded=0;" parent="1" vertex="1">
          <mxGeometry x="920" y="86.25" width="180" height="45" as="geometry" />
        </mxCell>
        <mxCell id="E7b6t17wuE4V5hdHy_3p-17" value="&lt;span style=&quot;font-size: 24px;&quot;&gt;Orders Page&lt;/span&gt;" style="text;html=1;align=center;verticalAlign=middle;whiteSpace=wrap;rounded=0;" parent="1" vertex="1">
          <mxGeometry x="890" y="18.75" width="210" height="30" as="geometry" />
        </mxCell>
        <mxCell id="E7b6t17wuE4V5hdHy_3p-18" value="" style="rounded=0;whiteSpace=wrap;html=1;" parent="1" vertex="1">
          <mxGeometry x="700" y="148.75" width="130" height="285" as="geometry" />
        </mxCell>
        <mxCell id="E7b6t17wuE4V5hdHy_3p-23" value="" style="rounded=0;whiteSpace=wrap;html=1;" parent="1" vertex="1">
          <mxGeometry x="700" y="148.75" width="130" height="40" as="geometry" />
        </mxCell>
        <mxCell id="E7b6t17wuE4V5hdHy_3p-24" value="&lt;font style=&quot;font-size: 15px;&quot;&gt;Placed&lt;/font&gt;" style="text;html=1;align=center;verticalAlign=middle;whiteSpace=wrap;rounded=0;" parent="1" vertex="1">
          <mxGeometry x="720" y="153.75" width="50" height="30" as="geometry" />
        </mxCell>
        <mxCell id="E7b6t17wuE4V5hdHy_3p-25" value="" style="rounded=0;whiteSpace=wrap;html=1;" parent="1" vertex="1">
          <mxGeometry x="700" y="188.75" width="130" height="40" as="geometry" />
        </mxCell>
        <mxCell id="E7b6t17wuE4V5hdHy_3p-26" value="&lt;font style=&quot;font-size: 15px;&quot;&gt;In Process&lt;/font&gt;" style="text;html=1;align=center;verticalAlign=middle;whiteSpace=wrap;rounded=0;" parent="1" vertex="1">
          <mxGeometry x="720" y="193.75" width="75" height="30" as="geometry" />
        </mxCell>
        <mxCell id="E7b6t17wuE4V5hdHy_3p-27" value="" style="rounded=0;whiteSpace=wrap;html=1;" parent="1" vertex="1">
          <mxGeometry x="700" y="228.75" width="130" height="40" as="geometry" />
        </mxCell>
        <mxCell id="E7b6t17wuE4V5hdHy_3p-28" value="&lt;font style=&quot;font-size: 15px;&quot;&gt;Dispached&lt;/font&gt;" style="text;html=1;align=center;verticalAlign=middle;whiteSpace=wrap;rounded=0;" parent="1" vertex="1">
          <mxGeometry x="720" y="233.75" width="77.5" height="30" as="geometry" />
        </mxCell>
        <mxCell id="E7b6t17wuE4V5hdHy_3p-29" value="" style="rounded=0;whiteSpace=wrap;html=1;" parent="1" vertex="1">
          <mxGeometry x="700" y="268.75" width="130" height="40" as="geometry" />
        </mxCell>
        <mxCell id="E7b6t17wuE4V5hdHy_3p-30" value="&lt;font style=&quot;font-size: 15px;&quot;&gt;Fulfilled&lt;/font&gt;" style="text;html=1;align=center;verticalAlign=middle;whiteSpace=wrap;rounded=0;" parent="1" vertex="1">
          <mxGeometry x="720" y="273.75" width="60" height="30" as="geometry" />
        </mxCell>
        <mxCell id="E7b6t17wuE4V5hdHy_3p-31" value="" style="rounded=0;whiteSpace=wrap;html=1;" parent="1" vertex="1">
          <mxGeometry x="920" y="178.75" width="250" height="85" as="geometry" />
        </mxCell>
        <mxCell id="E7b6t17wuE4V5hdHy_3p-32" value="Order Number" style="text;html=1;align=center;verticalAlign=middle;whiteSpace=wrap;rounded=0;" parent="1" vertex="1">
          <mxGeometry x="920" y="188.75" width="110" height="30" as="geometry" />
        </mxCell>
        <mxCell id="E7b6t17wuE4V5hdHy_3p-35" value="Category" style="text;html=1;align=center;verticalAlign=middle;whiteSpace=wrap;rounded=0;" parent="1" vertex="1">
          <mxGeometry x="932.5" y="211.25" width="85" height="22.5" as="geometry" />
        </mxCell>
        <mxCell id="E7b6t17wuE4V5hdHy_3p-37" value="" style="rounded=0;whiteSpace=wrap;html=1;" parent="1" vertex="1">
          <mxGeometry x="920" y="283.75" width="250" height="85" as="geometry" />
        </mxCell>
        <mxCell id="E7b6t17wuE4V5hdHy_3p-38" value="Order Number" style="text;html=1;align=center;verticalAlign=middle;whiteSpace=wrap;rounded=0;" parent="1" vertex="1">
          <mxGeometry x="920" y="293.75" width="110" height="30" as="geometry" />
        </mxCell>
        <mxCell id="E7b6t17wuE4V5hdHy_3p-39" value="Placed" style="strokeWidth=1;html=1;shadow=0;dashed=0;shape=mxgraph.ios.iComboBox;spacingTop=2;spacingLeft=2;align=left;strokeColor=#444444;fontColor=#666666;buttonText=;fontSize=8;fillColor=#dddddd;fillColor2=#3D5565;sketch=0;whiteSpace=wrap;" parent="1" vertex="1">
          <mxGeometry x="1030" y="328.75" width="115" height="20" as="geometry" />
        </mxCell>
        <mxCell id="E7b6t17wuE4V5hdHy_3p-40" value="Category" style="text;html=1;align=center;verticalAlign=middle;whiteSpace=wrap;rounded=0;" parent="1" vertex="1">
          <mxGeometry x="920" y="327.5" width="85" height="22.5" as="geometry" />
        </mxCell>
        <mxCell id="E7b6t17wuE4V5hdHy_3p-43" value="Move to Next state" style="rounded=1;html=1;shadow=0;dashed=0;whiteSpace=wrap;fontSize=10;fillColor=#E6E6E6;align=center;strokeColor=#E6E6E6;fontColor=#333333;" parent="1" vertex="1">
          <mxGeometry x="1047.5" y="241.25" width="105.5" height="16.88" as="geometry" />
        </mxCell>
        <mxCell id="E7b6t17wuE4V5hdHy_3p-44" value="View Order" style="rounded=1;html=1;shadow=0;dashed=0;whiteSpace=wrap;fontSize=10;fillColor=#E6E6E6;align=center;strokeColor=#E6E6E6;fontColor=#333333;" parent="1" vertex="1">
          <mxGeometry x="1034.75" y="300.31" width="105.5" height="16.88" as="geometry" />
        </mxCell>
        <mxCell id="E7b6t17wuE4V5hdHy_3p-91" value="" style="endArrow=classic;html=1;rounded=0;strokeColor=#333333;strokeWidth=12;" parent="1" edge="1">
          <mxGeometry width="50" height="50" relative="1" as="geometry">
            <mxPoint x="730" y="108.88000000000005" as="sourcePoint" />
            <mxPoint x="710" y="108.45999999999998" as="targetPoint" />
          </mxGeometry>
        </mxCell>
        <mxCell id="E7b6t17wuE4V5hdHy_3p-158" value="" style="rounded=0;whiteSpace=wrap;html=1;" parent="1" vertex="1">
          <mxGeometry x="30" y="562.5" width="615" height="365" as="geometry" />
        </mxCell>
        <mxCell id="E7b6t17wuE4V5hdHy_3p-161" value="&lt;span style=&quot;font-size: 24px;&quot;&gt;Modify Pizza Page 1&lt;/span&gt;" style="text;html=1;align=center;verticalAlign=middle;whiteSpace=wrap;rounded=0;" parent="1" vertex="1">
          <mxGeometry x="190.5" y="510" width="270" height="30" as="geometry" />
        </mxCell>
        <mxCell id="E7b6t17wuE4V5hdHy_3p-202" value="Save Chnages" style="rounded=1;html=1;shadow=0;dashed=0;whiteSpace=wrap;fontSize=10;fillColor=#E6E6E6;align=center;strokeColor=#E6E6E6;fontColor=#333333;" parent="1" vertex="1">
          <mxGeometry x="474.5" y="890" width="115.5" height="20" as="geometry" />
        </mxCell>
        <mxCell id="E7b6t17wuE4V5hdHy_3p-203" value="Delete Pizza" style="rounded=1;html=1;shadow=0;dashed=0;whiteSpace=wrap;fontSize=10;fillColor=#E6E6E6;align=center;strokeColor=#E6E6E6;fontColor=#333333;" parent="1" vertex="1">
          <mxGeometry x="345" y="890" width="115.5" height="20" as="geometry" />
        </mxCell>
        <mxCell id="BjCx5FvwtXD_g2K-T8CD-1" value="Sides" style="rounded=0;whiteSpace=wrap;html=1;" parent="1" vertex="1">
          <mxGeometry x="340" y="92.5" width="120" height="25" as="geometry" />
        </mxCell>
        <mxCell id="BjCx5FvwtXD_g2K-T8CD-5" value="" style="rounded=0;whiteSpace=wrap;html=1;" parent="1" vertex="1">
          <mxGeometry x="40" y="650" width="600" height="220" as="geometry" />
        </mxCell>
        <mxCell id="BjCx5FvwtXD_g2K-T8CD-6" value="" style="rounded=0;whiteSpace=wrap;html=1;" parent="1" vertex="1">
          <mxGeometry x="124" y="697" width="225" height="30" as="geometry" />
        </mxCell>
        <mxCell id="BjCx5FvwtXD_g2K-T8CD-7" value="Name :&amp;nbsp;" style="text;html=1;align=center;verticalAlign=middle;whiteSpace=wrap;rounded=0;" parent="1" vertex="1">
          <mxGeometry x="124" y="667" width="47.5" height="30" as="geometry" />
        </mxCell>
        <mxCell id="BjCx5FvwtXD_g2K-T8CD-8" value="" style="rounded=0;whiteSpace=wrap;html=1;" parent="1" vertex="1">
          <mxGeometry x="360" y="697" width="230" height="60" as="geometry" />
        </mxCell>
        <mxCell id="BjCx5FvwtXD_g2K-T8CD-9" value="Description:" style="text;html=1;align=center;verticalAlign=middle;whiteSpace=wrap;rounded=0;" parent="1" vertex="1">
          <mxGeometry x="360" y="667" width="60" height="30" as="geometry" />
        </mxCell>
        <mxCell id="BjCx5FvwtXD_g2K-T8CD-10" value="" style="rounded=0;whiteSpace=wrap;html=1;" parent="1" vertex="1">
          <mxGeometry x="124" y="792" width="225" height="30" as="geometry" />
        </mxCell>
        <mxCell id="BjCx5FvwtXD_g2K-T8CD-11" value="Price" style="text;html=1;align=center;verticalAlign=middle;whiteSpace=wrap;rounded=0;" parent="1" vertex="1">
          <mxGeometry x="124" y="762" width="47.5" height="30" as="geometry" />
        </mxCell>
        <mxCell id="BjCx5FvwtXD_g2K-T8CD-12" value="Placed" style="strokeWidth=1;html=1;shadow=0;dashed=0;shape=mxgraph.ios.iComboBox;spacingTop=2;spacingLeft=2;align=left;strokeColor=#444444;fontColor=#666666;buttonText=;fontSize=8;fillColor=#dddddd;fillColor2=#3D5565;sketch=0;whiteSpace=wrap;" parent="1" vertex="1">
          <mxGeometry x="360" y="792" width="220" height="30" as="geometry" />
        </mxCell>
        <mxCell id="BjCx5FvwtXD_g2K-T8CD-13" value="Category" style="text;html=1;align=center;verticalAlign=middle;whiteSpace=wrap;rounded=0;" parent="1" vertex="1">
          <mxGeometry x="362.5" y="762" width="60" height="30" as="geometry" />
        </mxCell>
        <mxCell id="BjCx5FvwtXD_g2K-T8CD-14" value="&lt;span style=&quot;font-size: 15px;&quot;&gt;Modify&lt;/span&gt;" style="text;html=1;align=center;verticalAlign=middle;whiteSpace=wrap;rounded=0;" parent="1" vertex="1">
          <mxGeometry x="242.5" y="635" width="180" height="45" as="geometry" />
        </mxCell>
        <mxCell id="BjCx5FvwtXD_g2K-T8CD-16" value="" style="verticalLabelPosition=bottom;shadow=0;dashed=0;align=center;html=1;verticalAlign=top;strokeWidth=1;shape=mxgraph.mockup.navigation.scrollBar;strokeColor=#999999;barPos=20;fillColor2=#99ddff;strokeColor2=none;direction=north;sketch=1;hachureGap=4;jiggle=2;curveFitting=1;fontFamily=Architects Daughter;fontSource=https%3A%2F%2Ffonts.googleapis.com%2Fcss%3Ffamily%3DArchitects%2BDaughter;" parent="1" vertex="1">
          <mxGeometry x="610" y="660" width="10" height="200" as="geometry" />
        </mxCell>
        <mxCell id="BjCx5FvwtXD_g2K-T8CD-17" value="" style="rounded=0;whiteSpace=wrap;html=1;" parent="1" vertex="1">
          <mxGeometry x="40" y="1032.5" width="615" height="365" as="geometry" />
        </mxCell>
        <mxCell id="BjCx5FvwtXD_g2K-T8CD-19" value="&lt;span style=&quot;font-size: 24px;&quot;&gt;Modify Pizza Page 2&lt;/span&gt;" style="text;html=1;align=center;verticalAlign=middle;whiteSpace=wrap;rounded=0;" parent="1" vertex="1">
          <mxGeometry x="200.5" y="980" width="270" height="30" as="geometry" />
        </mxCell>
        <mxCell id="BjCx5FvwtXD_g2K-T8CD-23" value="Save Chnages" style="rounded=1;html=1;shadow=0;dashed=0;whiteSpace=wrap;fontSize=10;fillColor=#E6E6E6;align=center;strokeColor=#E6E6E6;fontColor=#333333;" parent="1" vertex="1">
          <mxGeometry x="484.5" y="1360" width="115.5" height="20" as="geometry" />
        </mxCell>
        <mxCell id="BjCx5FvwtXD_g2K-T8CD-24" value="Delete Pizza" style="rounded=1;html=1;shadow=0;dashed=0;whiteSpace=wrap;fontSize=10;fillColor=#E6E6E6;align=center;strokeColor=#E6E6E6;fontColor=#333333;" parent="1" vertex="1">
          <mxGeometry x="355" y="1360" width="115.5" height="20" as="geometry" />
        </mxCell>
        <mxCell id="BjCx5FvwtXD_g2K-T8CD-25" value="" style="rounded=0;whiteSpace=wrap;html=1;" parent="1" vertex="1">
          <mxGeometry x="40" y="1120" width="610" height="220" as="geometry" />
        </mxCell>
        <mxCell id="BjCx5FvwtXD_g2K-T8CD-35" value="" style="verticalLabelPosition=bottom;shadow=0;dashed=0;align=center;html=1;verticalAlign=top;strokeWidth=1;shape=mxgraph.mockup.navigation.scrollBar;strokeColor=#999999;barPos=20;fillColor2=#99ddff;strokeColor2=none;direction=north;sketch=1;hachureGap=4;jiggle=2;curveFitting=1;fontFamily=Architects Daughter;fontSource=https%3A%2F%2Ffonts.googleapis.com%2Fcss%3Ffamily%3DArchitects%2BDaughter;" parent="1" vertex="1">
          <mxGeometry x="620" y="1130" width="10" height="200" as="geometry" />
        </mxCell>
        <mxCell id="BjCx5FvwtXD_g2K-T8CD-36" value="&lt;font style=&quot;font-size: 18px;&quot;&gt;Toppings:&lt;/font&gt;" style="text;html=1;align=center;verticalAlign=middle;whiteSpace=wrap;rounded=0;fontFamily=Architects Daughter;fontSource=https%3A%2F%2Ffonts.googleapis.com%2Fcss%3Ffamily%3DArchitects%2BDaughter;" parent="1" vertex="1">
          <mxGeometry x="52" y="1130" width="60" height="30" as="geometry" />
        </mxCell>
        <mxCell id="BjCx5FvwtXD_g2K-T8CD-39" value="Name" style="rounded=0;whiteSpace=wrap;html=1;sketch=1;hachureGap=4;jiggle=2;curveFitting=1;fontFamily=Architects Daughter;fontSource=https%3A%2F%2Ffonts.googleapis.com%2Fcss%3Ffamily%3DArchitects%2BDaughter;" parent="1" vertex="1">
          <mxGeometry x="132.75" y="1182.5" width="120" height="20" as="geometry" />
        </mxCell>
        <mxCell id="BjCx5FvwtXD_g2K-T8CD-40" value="Price" style="rounded=0;whiteSpace=wrap;html=1;sketch=1;hachureGap=4;jiggle=2;curveFitting=1;fontFamily=Architects Daughter;fontSource=https%3A%2F%2Ffonts.googleapis.com%2Fcss%3Ffamily%3DArchitects%2BDaughter;" parent="1" vertex="1">
          <mxGeometry x="300" y="1182.5" width="120" height="20" as="geometry" />
        </mxCell>
        <mxCell id="BjCx5FvwtXD_g2K-T8CD-41" value="Image" style="ellipse;whiteSpace=wrap;html=1;aspect=fixed;" parent="1" vertex="1">
          <mxGeometry x="52" y="1160" width="65" height="65" as="geometry" />
        </mxCell>
        <mxCell id="BjCx5FvwtXD_g2K-T8CD-42" value="Add Toppings" style="rounded=1;html=1;shadow=0;dashed=0;whiteSpace=wrap;fontSize=10;fillColor=#E6E6E6;align=center;strokeColor=#E6E6E6;fontColor=#333333;" parent="1" vertex="1">
          <mxGeometry x="464.5" y="1220" width="115.5" height="20" as="geometry" />
        </mxCell>
        <mxCell id="BjCx5FvwtXD_g2K-T8CD-43" value="Topping 1&amp;nbsp; Price" style="rounded=0;whiteSpace=wrap;html=1;sketch=1;hachureGap=4;jiggle=2;curveFitting=1;fontFamily=Architects Daughter;fontSource=https%3A%2F%2Ffonts.googleapis.com%2Fcss%3Ffamily%3DArchitects%2BDaughter;" parent="1" vertex="1">
          <mxGeometry x="230" y="1280" width="145" height="30" as="geometry" />
        </mxCell>
        <mxCell id="BjCx5FvwtXD_g2K-T8CD-44" value="" style="html=1;verticalLabelPosition=bottom;align=center;labelBackgroundColor=#ffffff;verticalAlign=top;strokeWidth=2;strokeColor=#0080F0;shadow=0;dashed=0;shape=mxgraph.ios7.icons.trashcan;sketch=1;hachureGap=4;jiggle=2;curveFitting=1;fontFamily=Architects Daughter;fontSource=https%3A%2F%2Ffonts.googleapis.com%2Fcss%3Ffamily%3DArchitects%2BDaughter;" parent="1" vertex="1">
          <mxGeometry x="230" y="1285" width="17" height="20" as="geometry" />
        </mxCell>
        <mxCell id="BjCx5FvwtXD_g2K-T8CD-54" value="" style="ellipse;whiteSpace=wrap;html=1;aspect=fixed;" parent="1" vertex="1">
          <mxGeometry x="42" y="690" width="80" height="80" as="geometry" />
        </mxCell>
        <mxCell id="BjCx5FvwtXD_g2K-T8CD-55" value="Image" style="text;html=1;align=center;verticalAlign=middle;whiteSpace=wrap;rounded=0;" parent="1" vertex="1">
          <mxGeometry x="52" y="770" width="60" height="30" as="geometry" />
        </mxCell>
        <mxCell id="BjCx5FvwtXD_g2K-T8CD-58" value="" style="rounded=0;whiteSpace=wrap;html=1;" parent="1" vertex="1">
          <mxGeometry x="30.5" y="562.5" width="613" height="80" as="geometry" />
        </mxCell>
        <mxCell id="BjCx5FvwtXD_g2K-T8CD-59" value="&lt;font style=&quot;font-size: 21px;&quot;&gt;Pezza&lt;/font&gt;" style="text;html=1;align=center;verticalAlign=middle;whiteSpace=wrap;rounded=0;" parent="1" vertex="1">
          <mxGeometry x="250.5" y="580" width="180" height="45" as="geometry" />
        </mxCell>
        <mxCell id="BjCx5FvwtXD_g2K-T8CD-60" value="" style="endArrow=classic;html=1;rounded=0;strokeColor=#333333;strokeWidth=12;" parent="1" edge="1">
          <mxGeometry width="50" height="50" relative="1" as="geometry">
            <mxPoint x="70.5" y="602.6800000000001" as="sourcePoint" />
            <mxPoint x="50.5" y="602.26" as="targetPoint" />
          </mxGeometry>
        </mxCell>
        <mxCell id="BjCx5FvwtXD_g2K-T8CD-61" value="" style="rounded=0;whiteSpace=wrap;html=1;" parent="1" vertex="1">
          <mxGeometry x="41" y="1032.5" width="613" height="80" as="geometry" />
        </mxCell>
        <mxCell id="BjCx5FvwtXD_g2K-T8CD-62" value="&lt;font style=&quot;font-size: 21px;&quot;&gt;Pezza&lt;/font&gt;" style="text;html=1;align=center;verticalAlign=middle;whiteSpace=wrap;rounded=0;" parent="1" vertex="1">
          <mxGeometry x="261" y="1050" width="180" height="45" as="geometry" />
        </mxCell>
        <mxCell id="BjCx5FvwtXD_g2K-T8CD-63" value="" style="endArrow=classic;html=1;rounded=0;strokeColor=#333333;strokeWidth=12;" parent="1" edge="1">
          <mxGeometry width="50" height="50" relative="1" as="geometry">
            <mxPoint x="81" y="1072.68" as="sourcePoint" />
            <mxPoint x="61" y="1072.26" as="targetPoint" />
          </mxGeometry>
        </mxCell>
        <mxCell id="BjCx5FvwtXD_g2K-T8CD-65" value="" style="html=1;shadow=0;dashed=0;shape=mxgraph.bootstrap.checkbox2;labelPosition=right;verticalLabelPosition=middle;align=left;verticalAlign=middle;gradientColor=#DEDEDE;fillColor=#EDEDED;checked=0;spacing=5;checkedFill=#0085FC;checkedStroke=#ffffff;sketch=0;hachureGap=4;jiggle=2;curveFitting=1;fontFamily=Architects Daughter;fontSource=https%3A%2F%2Ffonts.googleapis.com%2Fcss%3Ffamily%3DArchitects%2BDaughter;" parent="1" vertex="1">
          <mxGeometry x="556.5" y="1187.5" width="10" height="10" as="geometry" />
        </mxCell>
        <mxCell id="BjCx5FvwtXD_g2K-T8CD-66" value="Removable Topping" style="text;html=1;align=center;verticalAlign=middle;whiteSpace=wrap;rounded=0;fontFamily=Architects Daughter;fontSource=https%3A%2F%2Ffonts.googleapis.com%2Fcss%3Ffamily%3DArchitects%2BDaughter;" parent="1" vertex="1">
          <mxGeometry x="440" y="1177.5" width="110" height="30" as="geometry" />
        </mxCell>
        <mxCell id="BjCx5FvwtXD_g2K-T8CD-67" value="Topping 2&amp;nbsp; Price" style="rounded=0;whiteSpace=wrap;html=1;sketch=1;hachureGap=4;jiggle=2;curveFitting=1;fontFamily=Architects Daughter;fontSource=https%3A%2F%2Ffonts.googleapis.com%2Fcss%3Ffamily%3DArchitects%2BDaughter;" parent="1" vertex="1">
          <mxGeometry x="60" y="1280" width="145" height="30" as="geometry" />
        </mxCell>
        <mxCell id="BjCx5FvwtXD_g2K-T8CD-68" value="" style="html=1;verticalLabelPosition=bottom;align=center;labelBackgroundColor=#ffffff;verticalAlign=top;strokeWidth=2;strokeColor=#0080F0;shadow=0;dashed=0;shape=mxgraph.ios7.icons.trashcan;sketch=1;hachureGap=4;jiggle=2;curveFitting=1;fontFamily=Architects Daughter;fontSource=https%3A%2F%2Ffonts.googleapis.com%2Fcss%3Ffamily%3DArchitects%2BDaughter;" parent="1" vertex="1">
          <mxGeometry x="60" y="1285" width="17" height="20" as="geometry" />
        </mxCell>
        <mxCell id="BjCx5FvwtXD_g2K-T8CD-69" value="" style="rounded=0;whiteSpace=wrap;html=1;" parent="1" vertex="1">
          <mxGeometry x="692.5" y="566.25" width="615" height="365" as="geometry" />
        </mxCell>
        <mxCell id="BjCx5FvwtXD_g2K-T8CD-70" value="&lt;span style=&quot;font-size: 24px;&quot;&gt;Create Pizza Page 1&lt;/span&gt;" style="text;html=1;align=center;verticalAlign=middle;whiteSpace=wrap;rounded=0;" parent="1" vertex="1">
          <mxGeometry x="853" y="513.75" width="270" height="30" as="geometry" />
        </mxCell>
        <mxCell id="BjCx5FvwtXD_g2K-T8CD-71" value="Create Pizza" style="rounded=1;html=1;shadow=0;dashed=0;whiteSpace=wrap;fontSize=10;fillColor=#E6E6E6;align=center;strokeColor=#E6E6E6;fontColor=#333333;" parent="1" vertex="1">
          <mxGeometry x="1180" y="893.75" width="115.5" height="20" as="geometry" />
        </mxCell>
        <mxCell id="BjCx5FvwtXD_g2K-T8CD-73" value="" style="rounded=0;whiteSpace=wrap;html=1;" parent="1" vertex="1">
          <mxGeometry x="702.5" y="653.75" width="600" height="220" as="geometry" />
        </mxCell>
        <mxCell id="BjCx5FvwtXD_g2K-T8CD-74" value="" style="rounded=0;whiteSpace=wrap;html=1;" parent="1" vertex="1">
          <mxGeometry x="786.5" y="718.75" width="225" height="30" as="geometry" />
        </mxCell>
        <mxCell id="BjCx5FvwtXD_g2K-T8CD-75" value="Name :&amp;nbsp;" style="text;html=1;align=center;verticalAlign=middle;whiteSpace=wrap;rounded=0;" parent="1" vertex="1">
          <mxGeometry x="786.5" y="688.75" width="47.5" height="30" as="geometry" />
        </mxCell>
        <mxCell id="BjCx5FvwtXD_g2K-T8CD-76" value="" style="rounded=0;whiteSpace=wrap;html=1;" parent="1" vertex="1">
          <mxGeometry x="1022.5" y="718.75" width="230" height="60" as="geometry" />
        </mxCell>
        <mxCell id="BjCx5FvwtXD_g2K-T8CD-77" value="Description:" style="text;html=1;align=center;verticalAlign=middle;whiteSpace=wrap;rounded=0;" parent="1" vertex="1">
          <mxGeometry x="1022.5" y="688.75" width="60" height="30" as="geometry" />
        </mxCell>
        <mxCell id="BjCx5FvwtXD_g2K-T8CD-78" value="" style="rounded=0;whiteSpace=wrap;html=1;" parent="1" vertex="1">
          <mxGeometry x="786.5" y="813.75" width="225" height="30" as="geometry" />
        </mxCell>
        <mxCell id="BjCx5FvwtXD_g2K-T8CD-79" value="Price" style="text;html=1;align=center;verticalAlign=middle;whiteSpace=wrap;rounded=0;" parent="1" vertex="1">
          <mxGeometry x="786.5" y="783.75" width="47.5" height="30" as="geometry" />
        </mxCell>
        <mxCell id="BjCx5FvwtXD_g2K-T8CD-80" value="Placed" style="strokeWidth=1;html=1;shadow=0;dashed=0;shape=mxgraph.ios.iComboBox;spacingTop=2;spacingLeft=2;align=left;strokeColor=#444444;fontColor=#666666;buttonText=;fontSize=8;fillColor=#dddddd;fillColor2=#3D5565;sketch=0;whiteSpace=wrap;" parent="1" vertex="1">
          <mxGeometry x="1022.5" y="813.75" width="220" height="30" as="geometry" />
        </mxCell>
        <mxCell id="BjCx5FvwtXD_g2K-T8CD-81" value="Category" style="text;html=1;align=center;verticalAlign=middle;whiteSpace=wrap;rounded=0;" parent="1" vertex="1">
          <mxGeometry x="1025" y="783.75" width="60" height="30" as="geometry" />
        </mxCell>
        <mxCell id="BjCx5FvwtXD_g2K-T8CD-82" value="&lt;span style=&quot;font-size: 15px;&quot;&gt;Modify&lt;/span&gt;" style="text;html=1;align=center;verticalAlign=middle;whiteSpace=wrap;rounded=0;" parent="1" vertex="1">
          <mxGeometry x="902.5" y="653.75" width="180" height="45" as="geometry" />
        </mxCell>
        <mxCell id="BjCx5FvwtXD_g2K-T8CD-83" value="" style="verticalLabelPosition=bottom;shadow=0;dashed=0;align=center;html=1;verticalAlign=top;strokeWidth=1;shape=mxgraph.mockup.navigation.scrollBar;strokeColor=#999999;barPos=20;fillColor2=#99ddff;strokeColor2=none;direction=north;sketch=1;hachureGap=4;jiggle=2;curveFitting=1;fontFamily=Architects Daughter;fontSource=https%3A%2F%2Ffonts.googleapis.com%2Fcss%3Ffamily%3DArchitects%2BDaughter;" parent="1" vertex="1">
          <mxGeometry x="1272.5" y="663.75" width="10" height="200" as="geometry" />
        </mxCell>
        <mxCell id="BjCx5FvwtXD_g2K-T8CD-84" value="" style="ellipse;whiteSpace=wrap;html=1;aspect=fixed;" parent="1" vertex="1">
          <mxGeometry x="704.5" y="693.75" width="80" height="80" as="geometry" />
        </mxCell>
        <mxCell id="BjCx5FvwtXD_g2K-T8CD-85" value="Image" style="text;html=1;align=center;verticalAlign=middle;whiteSpace=wrap;rounded=0;" parent="1" vertex="1">
          <mxGeometry x="714.5" y="773.75" width="60" height="30" as="geometry" />
        </mxCell>
        <mxCell id="BjCx5FvwtXD_g2K-T8CD-86" value="" style="rounded=0;whiteSpace=wrap;html=1;" parent="1" vertex="1">
          <mxGeometry x="693" y="566.25" width="613" height="80" as="geometry" />
        </mxCell>
        <mxCell id="BjCx5FvwtXD_g2K-T8CD-87" value="&lt;font style=&quot;font-size: 21px;&quot;&gt;Pezza&lt;/font&gt;" style="text;html=1;align=center;verticalAlign=middle;whiteSpace=wrap;rounded=0;" parent="1" vertex="1">
          <mxGeometry x="913" y="583.75" width="180" height="45" as="geometry" />
        </mxCell>
        <mxCell id="BjCx5FvwtXD_g2K-T8CD-88" value="" style="endArrow=classic;html=1;rounded=0;strokeColor=#333333;strokeWidth=12;" parent="1" edge="1">
          <mxGeometry width="50" height="50" relative="1" as="geometry">
            <mxPoint x="733" y="606.4300000000001" as="sourcePoint" />
            <mxPoint x="713" y="606.01" as="targetPoint" />
          </mxGeometry>
        </mxCell>
        <mxCell id="BjCx5FvwtXD_g2K-T8CD-90" value="&lt;span style=&quot;font-size: 24px;&quot;&gt;Create Pizza Page 2&lt;/span&gt;" style="text;html=1;align=center;verticalAlign=middle;whiteSpace=wrap;rounded=0;" parent="1" vertex="1">
          <mxGeometry x="883" y="983.75" width="270" height="30" as="geometry" />
        </mxCell>
        <mxCell id="BjCx5FvwtXD_g2K-T8CD-110" value="" style="rounded=0;whiteSpace=wrap;html=1;" parent="1" vertex="1">
          <mxGeometry x="37.5" y="1542.5" width="615" height="365" as="geometry" />
        </mxCell>
        <mxCell id="BjCx5FvwtXD_g2K-T8CD-111" value="&lt;span style=&quot;font-size: 24px;&quot;&gt;Modify Side&lt;/span&gt;" style="text;html=1;align=center;verticalAlign=middle;whiteSpace=wrap;rounded=0;" parent="1" vertex="1">
          <mxGeometry x="198" y="1490" width="270" height="30" as="geometry" />
        </mxCell>
        <mxCell id="BjCx5FvwtXD_g2K-T8CD-112" value="Save Changes" style="rounded=1;html=1;shadow=0;dashed=0;whiteSpace=wrap;fontSize=10;fillColor=#E6E6E6;align=center;strokeColor=#E6E6E6;fontColor=#333333;" parent="1" vertex="1">
          <mxGeometry x="482" y="1870" width="115.5" height="20" as="geometry" />
        </mxCell>
        <mxCell id="BjCx5FvwtXD_g2K-T8CD-113" value="Delete Side" style="rounded=1;html=1;shadow=0;dashed=0;whiteSpace=wrap;fontSize=10;fillColor=#E6E6E6;align=center;strokeColor=#E6E6E6;fontColor=#333333;" parent="1" vertex="1">
          <mxGeometry x="352.5" y="1870" width="115.5" height="20" as="geometry" />
        </mxCell>
        <mxCell id="BjCx5FvwtXD_g2K-T8CD-116" value="&lt;font style=&quot;font-size: 25px;&quot;&gt;Sides:&lt;/font&gt;" style="text;html=1;align=center;verticalAlign=middle;whiteSpace=wrap;rounded=0;fontFamily=Architects Daughter;fontSource=https%3A%2F%2Ffonts.googleapis.com%2Fcss%3Ffamily%3DArchitects%2BDaughter;" parent="1" vertex="1">
          <mxGeometry x="321" y="1630" width="60" height="30" as="geometry" />
        </mxCell>
        <mxCell id="BjCx5FvwtXD_g2K-T8CD-117" value="Name" style="rounded=0;whiteSpace=wrap;html=1;sketch=1;hachureGap=4;jiggle=2;curveFitting=1;fontFamily=Architects Daughter;fontSource=https%3A%2F%2Ffonts.googleapis.com%2Fcss%3Ffamily%3DArchitects%2BDaughter;" parent="1" vertex="1">
          <mxGeometry x="137.5" y="1703" width="120" height="20" as="geometry" />
        </mxCell>
        <mxCell id="BjCx5FvwtXD_g2K-T8CD-119" value="" style="ellipse;whiteSpace=wrap;html=1;aspect=fixed;" parent="1" vertex="1">
          <mxGeometry x="49.5" y="1707.5" width="65" height="65" as="geometry" />
        </mxCell>
        <mxCell id="BjCx5FvwtXD_g2K-T8CD-123" value="" style="rounded=0;whiteSpace=wrap;html=1;" parent="1" vertex="1">
          <mxGeometry x="38.5" y="1542.5" width="613" height="80" as="geometry" />
        </mxCell>
        <mxCell id="BjCx5FvwtXD_g2K-T8CD-124" value="&lt;font style=&quot;font-size: 21px;&quot;&gt;Pezza&lt;/font&gt;" style="text;html=1;align=center;verticalAlign=middle;whiteSpace=wrap;rounded=0;" parent="1" vertex="1">
          <mxGeometry x="258.5" y="1560" width="180" height="45" as="geometry" />
        </mxCell>
        <mxCell id="BjCx5FvwtXD_g2K-T8CD-125" value="" style="endArrow=classic;html=1;rounded=0;strokeColor=#333333;strokeWidth=12;" parent="1" edge="1">
          <mxGeometry width="50" height="50" relative="1" as="geometry">
            <mxPoint x="78.5" y="1582.68" as="sourcePoint" />
            <mxPoint x="58.5" y="1582.26" as="targetPoint" />
          </mxGeometry>
        </mxCell>
        <mxCell id="BjCx5FvwtXD_g2K-T8CD-130" value="" style="html=1;shadow=0;dashed=0;shape=mxgraph.bootstrap.checkbox2;labelPosition=right;verticalLabelPosition=middle;align=left;verticalAlign=middle;gradientColor=#DEDEDE;fillColor=#EDEDED;checked=0;spacing=5;checkedFill=#0085FC;checkedStroke=#ffffff;sketch=0;hachureGap=4;jiggle=2;curveFitting=1;fontFamily=Architects Daughter;fontSource=https%3A%2F%2Ffonts.googleapis.com%2Fcss%3Ffamily%3DArchitects%2BDaughter;" parent="1" vertex="1">
          <mxGeometry x="127.5" y="840" width="10" height="10" as="geometry" />
        </mxCell>
        <mxCell id="BjCx5FvwtXD_g2K-T8CD-131" value="In Stock" style="text;html=1;align=center;verticalAlign=middle;whiteSpace=wrap;rounded=0;fontFamily=Architects Daughter;fontSource=https%3A%2F%2Ffonts.googleapis.com%2Fcss%3Ffamily%3DArchitects%2BDaughter;" parent="1" vertex="1">
          <mxGeometry x="140.5" y="830" width="60" height="30" as="geometry" />
        </mxCell>
        <mxCell id="BjCx5FvwtXD_g2K-T8CD-132" value="" style="html=1;shadow=0;dashed=0;shape=mxgraph.bootstrap.checkbox2;labelPosition=right;verticalLabelPosition=middle;align=left;verticalAlign=middle;gradientColor=#DEDEDE;fillColor=#EDEDED;checked=0;spacing=5;checkedFill=#0085FC;checkedStroke=#ffffff;sketch=0;hachureGap=4;jiggle=2;curveFitting=1;fontFamily=Architects Daughter;fontSource=https%3A%2F%2Ffonts.googleapis.com%2Fcss%3Ffamily%3DArchitects%2BDaughter;" parent="1" vertex="1">
          <mxGeometry x="787.5" y="853.75" width="10" height="10" as="geometry" />
        </mxCell>
        <mxCell id="BjCx5FvwtXD_g2K-T8CD-133" value="In Stock" style="text;html=1;align=center;verticalAlign=middle;whiteSpace=wrap;rounded=0;fontFamily=Architects Daughter;fontSource=https%3A%2F%2Ffonts.googleapis.com%2Fcss%3Ffamily%3DArchitects%2BDaughter;" parent="1" vertex="1">
          <mxGeometry x="800.5" y="843.75" width="60" height="30" as="geometry" />
        </mxCell>
        <mxCell id="BjCx5FvwtXD_g2K-T8CD-135" value="Price" style="rounded=0;whiteSpace=wrap;html=1;sketch=1;hachureGap=4;jiggle=2;curveFitting=1;fontFamily=Architects Daughter;fontSource=https%3A%2F%2Ffonts.googleapis.com%2Fcss%3Ffamily%3DArchitects%2BDaughter;" parent="1" vertex="1">
          <mxGeometry x="141" y="1780" width="120" height="20" as="geometry" />
        </mxCell>
        <mxCell id="BjCx5FvwtXD_g2K-T8CD-136" value="" style="rounded=0;whiteSpace=wrap;html=1;" parent="1" vertex="1">
          <mxGeometry x="405.25" y="1697.5" width="230" height="60" as="geometry" />
        </mxCell>
        <mxCell id="BjCx5FvwtXD_g2K-T8CD-137" value="Description:" style="text;html=1;align=center;verticalAlign=middle;whiteSpace=wrap;rounded=0;" parent="1" vertex="1">
          <mxGeometry x="405.25" y="1667.5" width="60" height="30" as="geometry" />
        </mxCell>
        <mxCell id="BjCx5FvwtXD_g2K-T8CD-139" value="Name" style="text;html=1;align=center;verticalAlign=middle;whiteSpace=wrap;rounded=0;" parent="1" vertex="1">
          <mxGeometry x="130" y="1675" width="60" height="30" as="geometry" />
        </mxCell>
        <mxCell id="BjCx5FvwtXD_g2K-T8CD-140" value="Image" style="text;html=1;align=center;verticalAlign=middle;whiteSpace=wrap;rounded=0;" parent="1" vertex="1">
          <mxGeometry x="54.5" y="1675" width="60" height="30" as="geometry" />
        </mxCell>
        <mxCell id="BjCx5FvwtXD_g2K-T8CD-141" value="Price" style="text;html=1;align=center;verticalAlign=middle;whiteSpace=wrap;rounded=0;" parent="1" vertex="1">
          <mxGeometry x="127.5" y="1750" width="60" height="30" as="geometry" />
        </mxCell>
        <mxCell id="BjCx5FvwtXD_g2K-T8CD-142" value="" style="html=1;shadow=0;dashed=0;shape=mxgraph.bootstrap.checkbox2;labelPosition=right;verticalLabelPosition=middle;align=left;verticalAlign=middle;gradientColor=#DEDEDE;fillColor=#EDEDED;checked=0;spacing=5;checkedFill=#0085FC;checkedStroke=#ffffff;sketch=0;hachureGap=4;jiggle=2;curveFitting=1;fontFamily=Architects Daughter;fontSource=https%3A%2F%2Ffonts.googleapis.com%2Fcss%3Ffamily%3DArchitects%2BDaughter;" parent="1" vertex="1">
          <mxGeometry x="521.75" y="1785" width="10" height="10" as="geometry" />
        </mxCell>
        <mxCell id="BjCx5FvwtXD_g2K-T8CD-143" value="In Stock" style="text;html=1;align=center;verticalAlign=middle;whiteSpace=wrap;rounded=0;fontFamily=Architects Daughter;fontSource=https%3A%2F%2Ffonts.googleapis.com%2Fcss%3Ffamily%3DArchitects%2BDaughter;" parent="1" vertex="1">
          <mxGeometry x="405.25" y="1775" width="110" height="30" as="geometry" />
        </mxCell>
        <mxCell id="BjCx5FvwtXD_g2K-T8CD-144" value="" style="html=1;shadow=0;dashed=0;shape=mxgraph.bootstrap.checkbox2;labelPosition=right;verticalLabelPosition=middle;align=left;verticalAlign=middle;gradientColor=#DEDEDE;fillColor=#EDEDED;checked=0;spacing=5;checkedFill=#0085FC;checkedStroke=#ffffff;sketch=0;hachureGap=4;jiggle=2;curveFitting=1;fontFamily=Architects Daughter;fontSource=https%3A%2F%2Ffonts.googleapis.com%2Fcss%3Ffamily%3DArchitects%2BDaughter;" parent="1" vertex="1">
          <mxGeometry x="249.25" y="1225" width="10" height="10" as="geometry" />
        </mxCell>
        <mxCell id="BjCx5FvwtXD_g2K-T8CD-145" value="In Stock" style="text;html=1;align=center;verticalAlign=middle;whiteSpace=wrap;rounded=0;fontFamily=Architects Daughter;fontSource=https%3A%2F%2Ffonts.googleapis.com%2Fcss%3Ffamily%3DArchitects%2BDaughter;" parent="1" vertex="1">
          <mxGeometry x="132.75" y="1215" width="110" height="30" as="geometry" />
        </mxCell>
        <mxCell id="BjCx5FvwtXD_g2K-T8CD-147" value="" style="html=1;shadow=0;dashed=0;shape=mxgraph.bootstrap.checkbox2;labelPosition=right;verticalLabelPosition=middle;align=left;verticalAlign=middle;gradientColor=#DEDEDE;fillColor=#EDEDED;checked=0;spacing=5;checkedFill=#0085FC;checkedStroke=#ffffff;sketch=0;hachureGap=4;jiggle=2;curveFitting=1;fontFamily=Architects Daughter;fontSource=https%3A%2F%2Ffonts.googleapis.com%2Fcss%3Ffamily%3DArchitects%2BDaughter;" parent="1" vertex="1">
          <mxGeometry x="416.5" y="1222.5" width="10" height="10" as="geometry" />
        </mxCell>
        <mxCell id="BjCx5FvwtXD_g2K-T8CD-148" value="Removable Topping" style="text;html=1;align=center;verticalAlign=middle;whiteSpace=wrap;rounded=0;fontFamily=Architects Daughter;fontSource=https%3A%2F%2Ffonts.googleapis.com%2Fcss%3Ffamily%3DArchitects%2BDaughter;" parent="1" vertex="1">
          <mxGeometry x="300" y="1212.5" width="110" height="30" as="geometry" />
        </mxCell>
        <mxCell id="BjCx5FvwtXD_g2K-T8CD-149" value="" style="rounded=0;whiteSpace=wrap;html=1;" parent="1" vertex="1">
          <mxGeometry x="695.5" y="1026.25" width="615" height="365" as="geometry" />
        </mxCell>
        <mxCell id="BjCx5FvwtXD_g2K-T8CD-151" value="Create Pizza" style="rounded=1;html=1;shadow=0;dashed=0;whiteSpace=wrap;fontSize=10;fillColor=#E6E6E6;align=center;strokeColor=#E6E6E6;fontColor=#333333;" parent="1" vertex="1">
          <mxGeometry x="1175" y="1363.75" width="115.5" height="20" as="geometry" />
        </mxCell>
        <mxCell id="BjCx5FvwtXD_g2K-T8CD-152" value="" style="rounded=0;whiteSpace=wrap;html=1;" parent="1" vertex="1">
          <mxGeometry x="695.5" y="1113.75" width="610" height="220" as="geometry" />
        </mxCell>
        <mxCell id="BjCx5FvwtXD_g2K-T8CD-153" value="" style="verticalLabelPosition=bottom;shadow=0;dashed=0;align=center;html=1;verticalAlign=top;strokeWidth=1;shape=mxgraph.mockup.navigation.scrollBar;strokeColor=#999999;barPos=20;fillColor2=#99ddff;strokeColor2=none;direction=north;sketch=1;hachureGap=4;jiggle=2;curveFitting=1;fontFamily=Architects Daughter;fontSource=https%3A%2F%2Ffonts.googleapis.com%2Fcss%3Ffamily%3DArchitects%2BDaughter;" parent="1" vertex="1">
          <mxGeometry x="1275.5" y="1123.75" width="10" height="200" as="geometry" />
        </mxCell>
        <mxCell id="BjCx5FvwtXD_g2K-T8CD-154" value="&lt;font style=&quot;font-size: 18px;&quot;&gt;Toppings:&lt;/font&gt;" style="text;html=1;align=center;verticalAlign=middle;whiteSpace=wrap;rounded=0;fontFamily=Architects Daughter;fontSource=https%3A%2F%2Ffonts.googleapis.com%2Fcss%3Ffamily%3DArchitects%2BDaughter;" parent="1" vertex="1">
          <mxGeometry x="707.5" y="1123.75" width="60" height="30" as="geometry" />
        </mxCell>
        <mxCell id="BjCx5FvwtXD_g2K-T8CD-155" value="Name" style="rounded=0;whiteSpace=wrap;html=1;sketch=1;hachureGap=4;jiggle=2;curveFitting=1;fontFamily=Architects Daughter;fontSource=https%3A%2F%2Ffonts.googleapis.com%2Fcss%3Ffamily%3DArchitects%2BDaughter;" parent="1" vertex="1">
          <mxGeometry x="788.25" y="1176.25" width="120" height="20" as="geometry" />
        </mxCell>
        <mxCell id="BjCx5FvwtXD_g2K-T8CD-156" value="Price" style="rounded=0;whiteSpace=wrap;html=1;sketch=1;hachureGap=4;jiggle=2;curveFitting=1;fontFamily=Architects Daughter;fontSource=https%3A%2F%2Ffonts.googleapis.com%2Fcss%3Ffamily%3DArchitects%2BDaughter;" parent="1" vertex="1">
          <mxGeometry x="955.5" y="1176.25" width="120" height="20" as="geometry" />
        </mxCell>
        <mxCell id="BjCx5FvwtXD_g2K-T8CD-157" value="Image" style="ellipse;whiteSpace=wrap;html=1;aspect=fixed;" parent="1" vertex="1">
          <mxGeometry x="707.5" y="1153.75" width="65" height="65" as="geometry" />
        </mxCell>
        <mxCell id="BjCx5FvwtXD_g2K-T8CD-158" value="Add Toppings" style="rounded=1;html=1;shadow=0;dashed=0;whiteSpace=wrap;fontSize=10;fillColor=#E6E6E6;align=center;strokeColor=#E6E6E6;fontColor=#333333;" parent="1" vertex="1">
          <mxGeometry x="1120" y="1213.75" width="115.5" height="20" as="geometry" />
        </mxCell>
        <mxCell id="BjCx5FvwtXD_g2K-T8CD-159" value="Topping 1&amp;nbsp; Price" style="rounded=0;whiteSpace=wrap;html=1;sketch=1;hachureGap=4;jiggle=2;curveFitting=1;fontFamily=Architects Daughter;fontSource=https%3A%2F%2Ffonts.googleapis.com%2Fcss%3Ffamily%3DArchitects%2BDaughter;" parent="1" vertex="1">
          <mxGeometry x="885.5" y="1273.75" width="145" height="30" as="geometry" />
        </mxCell>
        <mxCell id="BjCx5FvwtXD_g2K-T8CD-160" value="" style="html=1;verticalLabelPosition=bottom;align=center;labelBackgroundColor=#ffffff;verticalAlign=top;strokeWidth=2;strokeColor=#0080F0;shadow=0;dashed=0;shape=mxgraph.ios7.icons.trashcan;sketch=1;hachureGap=4;jiggle=2;curveFitting=1;fontFamily=Architects Daughter;fontSource=https%3A%2F%2Ffonts.googleapis.com%2Fcss%3Ffamily%3DArchitects%2BDaughter;" parent="1" vertex="1">
          <mxGeometry x="885.5" y="1278.75" width="17" height="20" as="geometry" />
        </mxCell>
        <mxCell id="BjCx5FvwtXD_g2K-T8CD-161" value="" style="rounded=0;whiteSpace=wrap;html=1;" parent="1" vertex="1">
          <mxGeometry x="696.5" y="1026.25" width="613" height="80" as="geometry" />
        </mxCell>
        <mxCell id="BjCx5FvwtXD_g2K-T8CD-162" value="&lt;font style=&quot;font-size: 21px;&quot;&gt;Pezza&lt;/font&gt;" style="text;html=1;align=center;verticalAlign=middle;whiteSpace=wrap;rounded=0;" parent="1" vertex="1">
          <mxGeometry x="916.5" y="1043.75" width="180" height="45" as="geometry" />
        </mxCell>
        <mxCell id="BjCx5FvwtXD_g2K-T8CD-163" value="" style="endArrow=classic;html=1;rounded=0;strokeColor=#333333;strokeWidth=12;" parent="1" edge="1">
          <mxGeometry width="50" height="50" relative="1" as="geometry">
            <mxPoint x="736.5" y="1066.43" as="sourcePoint" />
            <mxPoint x="716.5" y="1066.01" as="targetPoint" />
          </mxGeometry>
        </mxCell>
        <mxCell id="BjCx5FvwtXD_g2K-T8CD-164" value="" style="html=1;shadow=0;dashed=0;shape=mxgraph.bootstrap.checkbox2;labelPosition=right;verticalLabelPosition=middle;align=left;verticalAlign=middle;gradientColor=#DEDEDE;fillColor=#EDEDED;checked=0;spacing=5;checkedFill=#0085FC;checkedStroke=#ffffff;sketch=0;hachureGap=4;jiggle=2;curveFitting=1;fontFamily=Architects Daughter;fontSource=https%3A%2F%2Ffonts.googleapis.com%2Fcss%3Ffamily%3DArchitects%2BDaughter;" parent="1" vertex="1">
          <mxGeometry x="1212" y="1181.25" width="10" height="10" as="geometry" />
        </mxCell>
        <mxCell id="BjCx5FvwtXD_g2K-T8CD-165" value="Removable Topping" style="text;html=1;align=center;verticalAlign=middle;whiteSpace=wrap;rounded=0;fontFamily=Architects Daughter;fontSource=https%3A%2F%2Ffonts.googleapis.com%2Fcss%3Ffamily%3DArchitects%2BDaughter;" parent="1" vertex="1">
          <mxGeometry x="1095.5" y="1171.25" width="110" height="30" as="geometry" />
        </mxCell>
        <mxCell id="BjCx5FvwtXD_g2K-T8CD-166" value="Topping 2&amp;nbsp; Price" style="rounded=0;whiteSpace=wrap;html=1;sketch=1;hachureGap=4;jiggle=2;curveFitting=1;fontFamily=Architects Daughter;fontSource=https%3A%2F%2Ffonts.googleapis.com%2Fcss%3Ffamily%3DArchitects%2BDaughter;" parent="1" vertex="1">
          <mxGeometry x="715.5" y="1273.75" width="145" height="30" as="geometry" />
        </mxCell>
        <mxCell id="BjCx5FvwtXD_g2K-T8CD-167" value="" style="html=1;verticalLabelPosition=bottom;align=center;labelBackgroundColor=#ffffff;verticalAlign=top;strokeWidth=2;strokeColor=#0080F0;shadow=0;dashed=0;shape=mxgraph.ios7.icons.trashcan;sketch=1;hachureGap=4;jiggle=2;curveFitting=1;fontFamily=Architects Daughter;fontSource=https%3A%2F%2Ffonts.googleapis.com%2Fcss%3Ffamily%3DArchitects%2BDaughter;" parent="1" vertex="1">
          <mxGeometry x="715.5" y="1278.75" width="17" height="20" as="geometry" />
        </mxCell>
        <mxCell id="BjCx5FvwtXD_g2K-T8CD-168" value="" style="html=1;shadow=0;dashed=0;shape=mxgraph.bootstrap.checkbox2;labelPosition=right;verticalLabelPosition=middle;align=left;verticalAlign=middle;gradientColor=#DEDEDE;fillColor=#EDEDED;checked=0;spacing=5;checkedFill=#0085FC;checkedStroke=#ffffff;sketch=0;hachureGap=4;jiggle=2;curveFitting=1;fontFamily=Architects Daughter;fontSource=https%3A%2F%2Ffonts.googleapis.com%2Fcss%3Ffamily%3DArchitects%2BDaughter;" parent="1" vertex="1">
          <mxGeometry x="904.75" y="1218.75" width="10" height="10" as="geometry" />
        </mxCell>
        <mxCell id="BjCx5FvwtXD_g2K-T8CD-169" value="In Stock" style="text;html=1;align=center;verticalAlign=middle;whiteSpace=wrap;rounded=0;fontFamily=Architects Daughter;fontSource=https%3A%2F%2Ffonts.googleapis.com%2Fcss%3Ffamily%3DArchitects%2BDaughter;" parent="1" vertex="1">
          <mxGeometry x="788.25" y="1208.75" width="110" height="30" as="geometry" />
        </mxCell>
        <mxCell id="BjCx5FvwtXD_g2K-T8CD-170" value="" style="html=1;shadow=0;dashed=0;shape=mxgraph.bootstrap.checkbox2;labelPosition=right;verticalLabelPosition=middle;align=left;verticalAlign=middle;gradientColor=#DEDEDE;fillColor=#EDEDED;checked=0;spacing=5;checkedFill=#0085FC;checkedStroke=#ffffff;sketch=0;hachureGap=4;jiggle=2;curveFitting=1;fontFamily=Architects Daughter;fontSource=https%3A%2F%2Ffonts.googleapis.com%2Fcss%3Ffamily%3DArchitects%2BDaughter;" parent="1" vertex="1">
          <mxGeometry x="1072" y="1216.25" width="10" height="10" as="geometry" />
        </mxCell>
        <mxCell id="BjCx5FvwtXD_g2K-T8CD-171" value="Removable Topping" style="text;html=1;align=center;verticalAlign=middle;whiteSpace=wrap;rounded=0;fontFamily=Architects Daughter;fontSource=https%3A%2F%2Ffonts.googleapis.com%2Fcss%3Ffamily%3DArchitects%2BDaughter;" parent="1" vertex="1">
          <mxGeometry x="955.5" y="1206.25" width="110" height="30" as="geometry" />
        </mxCell>
        <mxCell id="BjCx5FvwtXD_g2K-T8CD-172" value="" style="rounded=0;whiteSpace=wrap;html=1;" parent="1" vertex="1">
          <mxGeometry x="720" y="1556.25" width="615" height="365" as="geometry" />
        </mxCell>
        <mxCell id="BjCx5FvwtXD_g2K-T8CD-173" value="&lt;span style=&quot;font-size: 24px;&quot;&gt;Modify Side&lt;/span&gt;" style="text;html=1;align=center;verticalAlign=middle;whiteSpace=wrap;rounded=0;" parent="1" vertex="1">
          <mxGeometry x="880.5" y="1503.75" width="270" height="30" as="geometry" />
        </mxCell>
        <mxCell id="BjCx5FvwtXD_g2K-T8CD-174" value="Add Side" style="rounded=1;html=1;shadow=0;dashed=0;whiteSpace=wrap;fontSize=10;fillColor=#E6E6E6;align=center;strokeColor=#E6E6E6;fontColor=#333333;" parent="1" vertex="1">
          <mxGeometry x="1164.5" y="1883.75" width="115.5" height="20" as="geometry" />
        </mxCell>
        <mxCell id="BjCx5FvwtXD_g2K-T8CD-176" value="&lt;font style=&quot;font-size: 25px;&quot;&gt;Sides:&lt;/font&gt;" style="text;html=1;align=center;verticalAlign=middle;whiteSpace=wrap;rounded=0;fontFamily=Architects Daughter;fontSource=https%3A%2F%2Ffonts.googleapis.com%2Fcss%3Ffamily%3DArchitects%2BDaughter;" parent="1" vertex="1">
          <mxGeometry x="1003.5" y="1643.75" width="60" height="30" as="geometry" />
        </mxCell>
        <mxCell id="BjCx5FvwtXD_g2K-T8CD-177" value="Name" style="rounded=0;whiteSpace=wrap;html=1;sketch=1;hachureGap=4;jiggle=2;curveFitting=1;fontFamily=Architects Daughter;fontSource=https%3A%2F%2Ffonts.googleapis.com%2Fcss%3Ffamily%3DArchitects%2BDaughter;" parent="1" vertex="1">
          <mxGeometry x="820" y="1716.75" width="120" height="20" as="geometry" />
        </mxCell>
        <mxCell id="BjCx5FvwtXD_g2K-T8CD-178" value="" style="ellipse;whiteSpace=wrap;html=1;aspect=fixed;" parent="1" vertex="1">
          <mxGeometry x="732" y="1721.25" width="65" height="65" as="geometry" />
        </mxCell>
        <mxCell id="BjCx5FvwtXD_g2K-T8CD-179" value="" style="rounded=0;whiteSpace=wrap;html=1;" parent="1" vertex="1">
          <mxGeometry x="721" y="1556.25" width="613" height="80" as="geometry" />
        </mxCell>
        <mxCell id="BjCx5FvwtXD_g2K-T8CD-180" value="&lt;font style=&quot;font-size: 21px;&quot;&gt;Pezza&lt;/font&gt;" style="text;html=1;align=center;verticalAlign=middle;whiteSpace=wrap;rounded=0;" parent="1" vertex="1">
          <mxGeometry x="941" y="1573.75" width="180" height="45" as="geometry" />
        </mxCell>
        <mxCell id="BjCx5FvwtXD_g2K-T8CD-181" value="" style="endArrow=classic;html=1;rounded=0;strokeColor=#333333;strokeWidth=12;" parent="1" edge="1">
          <mxGeometry width="50" height="50" relative="1" as="geometry">
            <mxPoint x="761" y="1596.4300000000003" as="sourcePoint" />
            <mxPoint x="741" y="1596.0100000000002" as="targetPoint" />
          </mxGeometry>
        </mxCell>
        <mxCell id="BjCx5FvwtXD_g2K-T8CD-182" value="Price" style="rounded=0;whiteSpace=wrap;html=1;sketch=1;hachureGap=4;jiggle=2;curveFitting=1;fontFamily=Architects Daughter;fontSource=https%3A%2F%2Ffonts.googleapis.com%2Fcss%3Ffamily%3DArchitects%2BDaughter;" parent="1" vertex="1">
          <mxGeometry x="823.5" y="1793.75" width="120" height="20" as="geometry" />
        </mxCell>
        <mxCell id="BjCx5FvwtXD_g2K-T8CD-183" value="" style="rounded=0;whiteSpace=wrap;html=1;" parent="1" vertex="1">
          <mxGeometry x="1087.75" y="1711.25" width="230" height="60" as="geometry" />
        </mxCell>
        <mxCell id="BjCx5FvwtXD_g2K-T8CD-184" value="Description:" style="text;html=1;align=center;verticalAlign=middle;whiteSpace=wrap;rounded=0;" parent="1" vertex="1">
          <mxGeometry x="1087.75" y="1681.25" width="60" height="30" as="geometry" />
        </mxCell>
        <mxCell id="BjCx5FvwtXD_g2K-T8CD-185" value="Name" style="text;html=1;align=center;verticalAlign=middle;whiteSpace=wrap;rounded=0;" parent="1" vertex="1">
          <mxGeometry x="812.5" y="1688.75" width="60" height="30" as="geometry" />
        </mxCell>
        <mxCell id="BjCx5FvwtXD_g2K-T8CD-186" value="Image" style="text;html=1;align=center;verticalAlign=middle;whiteSpace=wrap;rounded=0;" parent="1" vertex="1">
          <mxGeometry x="737" y="1688.75" width="60" height="30" as="geometry" />
        </mxCell>
        <mxCell id="BjCx5FvwtXD_g2K-T8CD-187" value="Price" style="text;html=1;align=center;verticalAlign=middle;whiteSpace=wrap;rounded=0;" parent="1" vertex="1">
          <mxGeometry x="810" y="1763.75" width="60" height="30" as="geometry" />
        </mxCell>
        <mxCell id="BjCx5FvwtXD_g2K-T8CD-188" value="" style="html=1;shadow=0;dashed=0;shape=mxgraph.bootstrap.checkbox2;labelPosition=right;verticalLabelPosition=middle;align=left;verticalAlign=middle;gradientColor=#DEDEDE;fillColor=#EDEDED;checked=0;spacing=5;checkedFill=#0085FC;checkedStroke=#ffffff;sketch=0;hachureGap=4;jiggle=2;curveFitting=1;fontFamily=Architects Daughter;fontSource=https%3A%2F%2Ffonts.googleapis.com%2Fcss%3Ffamily%3DArchitects%2BDaughter;" parent="1" vertex="1">
          <mxGeometry x="1204.25" y="1798.75" width="10" height="10" as="geometry" />
        </mxCell>
        <mxCell id="BjCx5FvwtXD_g2K-T8CD-189" value="In Stock" style="text;html=1;align=center;verticalAlign=middle;whiteSpace=wrap;rounded=0;fontFamily=Architects Daughter;fontSource=https%3A%2F%2Ffonts.googleapis.com%2Fcss%3Ffamily%3DArchitects%2BDaughter;" parent="1" vertex="1">
          <mxGeometry x="1087.75" y="1788.75" width="110" height="30" as="geometry" />
        </mxCell>
        <mxCell id="ESj4BFCw_DqXkm_PGuoG-1" value="Cat 1" style="rounded=0;whiteSpace=wrap;html=1;" vertex="1" parent="1">
          <mxGeometry x="70" y="167.5" width="120" height="26.25" as="geometry" />
        </mxCell>
        <mxCell id="ESj4BFCw_DqXkm_PGuoG-2" value="Cat 1" style="rounded=0;whiteSpace=wrap;html=1;" vertex="1" parent="1">
          <mxGeometry x="220" y="167.5" width="120" height="26.25" as="geometry" />
        </mxCell>
        <mxCell id="ESj4BFCw_DqXkm_PGuoG-3" value="Cat 1" style="rounded=0;whiteSpace=wrap;html=1;" vertex="1" parent="1">
          <mxGeometry x="355.25" y="167.5" width="120" height="26.25" as="geometry" />
        </mxCell>
        <mxCell id="ESj4BFCw_DqXkm_PGuoG-4" value="Cat 1" style="rounded=0;whiteSpace=wrap;html=1;" vertex="1" parent="1">
          <mxGeometry x="500" y="167.5" width="120" height="26.25" as="geometry" />
        </mxCell>
        <mxCell id="ESj4BFCw_DqXkm_PGuoG-5" value="Add Pizza" style="rounded=1;html=1;shadow=0;dashed=0;whiteSpace=wrap;fontSize=10;fillColor=#E6E6E6;align=center;strokeColor=#E6E6E6;fontColor=#333333;" vertex="1" parent="1">
          <mxGeometry x="504.5" y="400" width="115.5" height="20" as="geometry" />
        </mxCell>
        <mxCell id="ESj4BFCw_DqXkm_PGuoG-6" value="" style="rounded=0;whiteSpace=wrap;html=1;fontColor=#333333;fillColor=#ffffff;" vertex="1" parent="1">
          <mxGeometry x="430" y="218.75" width="190" height="70" as="geometry" />
        </mxCell>
        <mxCell id="ESj4BFCw_DqXkm_PGuoG-7" value="" style="rounded=0;whiteSpace=wrap;html=1;fontColor=#333333;fillColor=#ffffff;" vertex="1" parent="1">
          <mxGeometry x="70.5" y="216.25" width="190" height="70" as="geometry" />
        </mxCell>
        <mxCell id="ESj4BFCw_DqXkm_PGuoG-8" value="" style="ellipse;whiteSpace=wrap;html=1;aspect=fixed;" vertex="1" parent="1">
          <mxGeometry x="440" y="226.25" width="45" height="45" as="geometry" />
        </mxCell>
        <mxCell id="ESj4BFCw_DqXkm_PGuoG-9" value="" style="ellipse;whiteSpace=wrap;html=1;aspect=fixed;" vertex="1" parent="1">
          <mxGeometry x="80.5" y="223.75" width="45" height="45" as="geometry" />
        </mxCell>
        <mxCell id="ESj4BFCw_DqXkm_PGuoG-10" value="Name" style="text;html=1;align=center;verticalAlign=middle;whiteSpace=wrap;rounded=0;" vertex="1" parent="1">
          <mxGeometry x="485" y="218.75" width="65" height="22.5" as="geometry" />
        </mxCell>
        <mxCell id="ESj4BFCw_DqXkm_PGuoG-11" value="Name" style="text;html=1;align=center;verticalAlign=middle;whiteSpace=wrap;rounded=0;" vertex="1" parent="1">
          <mxGeometry x="125.5" y="216.25" width="65" height="22.5" as="geometry" />
        </mxCell>
        <mxCell id="ESj4BFCw_DqXkm_PGuoG-12" value="Modify" style="rounded=1;html=1;shadow=0;dashed=0;whiteSpace=wrap;fontSize=10;fillColor=#E6E6E6;align=center;strokeColor=#E6E6E6;fontColor=#333333;" vertex="1" parent="1">
          <mxGeometry x="510" y="264.3699999999999" width="105.5" height="16.88" as="geometry" />
        </mxCell>
        <mxCell id="ESj4BFCw_DqXkm_PGuoG-13" value="Modify" style="rounded=1;html=1;shadow=0;dashed=0;whiteSpace=wrap;fontSize=10;fillColor=#E6E6E6;align=center;strokeColor=#E6E6E6;fontColor=#333333;" vertex="1" parent="1">
          <mxGeometry x="150.5" y="262.9999999999999" width="105.5" height="16.88" as="geometry" />
        </mxCell>
        <mxCell id="ESj4BFCw_DqXkm_PGuoG-14" value="View Order" style="rounded=1;html=1;shadow=0;dashed=0;whiteSpace=wrap;fontSize=10;fillColor=#E6E6E6;align=center;strokeColor=#E6E6E6;fontColor=#333333;" vertex="1" parent="1">
          <mxGeometry x="929.25" y="242.81" width="105.5" height="16.88" as="geometry" />
        </mxCell>
      </root>
    </mxGraphModel>
  </diagram>
</mxfile>
